#!OML:ASF F:\VICON\USERDATA\INSTALL\rory3\rory3.ASF
:FULLY-SPECIFIED
:DEGREES
285
root 0.802589 17.7514 13.0817 141.059 84.0062 141.704
lowerback 11.6237 -1.11968 -4.15885
upperback 1.15201 -1.92128 0.831129
thorax -5.14275 -0.828582 3.51981
lowerneck -20.1747 -4.66958 -11.9941
upperneck 29.0847 -4.0439 6.10929
head 13.632 -2.11047 3.79993
rclavicle 1.2921e-015 1.15295e-014
rhumerus -42.8061 -21.0566 -72.0278
rradius 24.2974
rwrist 11.3215
rhand -16.8248 7.43446
rfingers 7.12502
rthumb 9.40441 -22.3357
lclavicle 1.2921e-015 1.15295e-014
lhumerus -29.7078 -0.914328 87.0935
lradius 43.1102
lwrist -1.41857
lhand -22.4075 26.3772
lfingers 7.12502
lthumb 4.01524 56.3191
rfemur -25.6413 1.97894 17.5144
rtibia 31.46
rfoot -2.97522 0.702567
rtoes 7.04826
lfemur 14.7 -4.44849 -28.0551
ltibia 24.487
lfoot 9.75127 -12.2492
ltoes 3.98076
286
root 0.979523 17.7684 13.0935 143.988 83.888 144.68
lowerback 11.4691 -1.22953 -4.09968
upperback 1.12133 -2.05115 0.904315
thorax -5.07669 -0.89522 3.57837
lowerneck -20.26 -4.6903 -12.0272
upperneck 29.32 -4.08174 6.21191
head 13.7585 -2.11724 3.84905
rclavicle 3.2054e-014 -2.78299e-015
rhumerus -42.7674 -21.3336 -71.8504
rradius 24.3607
rwrist 11.2781
rhand -16.4931 7.66932
rfingers 7.12502
rthumb 9.72445 -22.0862
lclavicle 3.2054e-014 -2.78299e-015
lhumerus -30.029 -0.587992 87.1331
lradius 42.6009
lwrist -0.973539
lhand -22.7377 26.4191
lfingers 7.12502
lthumb 3.69642 56.3668
rfemur -25.1076 2.24991 17.825
rtibia 31.8642
rfoot -3.62892 0.184832
rtoes 8.0867
lfemur 13.6671 -4.34536 -27.4309
ltibia 26.7035
lfoot 13.0712 -12.0825
ltoes 6.23056
287
root 1.15379 17.785 13.105 147.136 83.7348 147.883
lowerback 11.3352 -1.33647 -4.03983
upperback 1.09005 -2.17736 0.990197
thorax -5.02252 -0.959556 3.64953
lowerneck -20.273 -4.69341 -12.0261
upperneck 29.4633 -4.10509 6.28098
head 13.827 -2.11809 3.87847
rclavicle -1.25234e-014 -2.26615e-014
rhumerus -42.7496 -21.404 -71.8299
rradius 24.6134
rwrist 10.8553
rhand -16.3755 7.6212
rfingers 7.12502
rthumb 9.83788 -22.129
lclavicle -1.25234e-014 -2.26615e-014
lhumerus -30.2963 -0.359513 87.1551
lradius 41.9899
lwrist -1.15582
lhand -22.2134 26.15
lfingers 7.12502
lthumb 4.20266 56.0882
rfemur -24.4935 2.23813 18.2297
rtibia 32.0824
rfoot -4.20919 -0.122956
rtoes 7.87684
lfemur 12.4658 -4.26756 -26.792
ltibia 29.1517
lfoot 15.7012 -12.2315
ltoes 6.30767
288
root 1.32575 17.8035 13.1171 150.606 83.6178 151.561
lowerback 11.3996 -1.37936 -3.86544
upperback 1.06886 -2.21144 1.05756
thorax -5.08151 -0.977362 3.62994
lowerneck -20.1584 -4.70739 -11.8402
upperneck 29.5104 -4.14821 6.11633
head 13.8182 -2.13815 3.7737
rclavicle 8.44835e-016 1.78906e-014
rhumerus -42.7871 -21.3229 -71.9845
rradius 24.914
rwrist 10.2867
rhand -16.7965 7.56562
rfingers 7.12502
rthumb 9.43167 -22.2033
lclavicle 8.44835e-016 1.78906e-014
lhumerus -30.6025 -0.561223 87.1859
lradius 41.4168
lwrist -1.36347
lhand -21.5924 26.1439
lfingers 7.12502
lthumb 4.80234 56.0695
rfemur -23.6146 2.08723 18.7484
rtibia 32.1262
rfoot -4.80996 -0.471709
rtoes 6.53092
lfemur 11.3359 -4.36699 -26.1184
ltibia 31.7019
lfoot 17.7702 -12.6881
ltoes 6.18668
289
root 1.49214 17.8276 13.1269 155.422 83.4755 156.626
lowerback 11.5603 -1.44832 -3.45307
upperback 1.04323 -2.25058 1.14765
thorax -5.20681 -1.00046 3.50454
lowerneck -20.1172 -4.7923 -11.8292
upperneck 29.6555 -4.28363 6.13712
head 13.8883 -2.19285 3.76134
rclavicle -2.94201e-014 1.03368e-014
rhumerus -42.7783 -21.0416 -72.262
rradius 25.2433
rwrist 9.58282
rhand -16.9847 7.59317
rfingers 7.12502
rthumb 9.25008 -22.1839
lclavicle -2.94201e-014 1.03368e-014
lhumerus -30.8567 -0.729735 87.2135
lradius 40.8171
lwrist -1.75108
lhand -20.7755 26.3694
lfingers 7.12502
lthumb 5.59115 56.2757
rfemur -22.5972 2.12903 19.3722
rtibia 32.0051
rfoot -5.41335 -1.0787
rtoes 6.54604
lfemur 10.1304 -4.64192 -25.3192
ltibia 34.2754
lfoot 19.7557 -13.5719
ltoes 6.98927
